<svg xmlns="http://www.w3.org/2000/svg" width="36" height="32" viewBox="0 0 36 32">
  <defs>
    <style>
      .cls-1 {
        fill: #fff;
        fill-rule: evenodd;
      }
    </style>
  </defs>
  <path class="cls-1" d="M1535.2,85a1.2,1.2,0,1,0,0,2.4h3.83l4.12,19.463a1.508,1.508,0,0,0,1.25,1.337h20.01a1.2,1.2,0,1,0,0-2.4h-19.03l-0.51-2.4h21.14a1.225,1.225,0,0,0,1.16-.938l2.8-12A1.248,1.248,0,0,0,1568.81,89h-26.98l-0.65-3.05A1.245,1.245,0,0,0,1540,85h-4.8Zm7.13,6.4h24.97l-2.24,9.6h-20.69Zm6.07,17.6a4,4,0,1,0,4.01,4A4.021,4.021,0,0,0,1548.4,109Zm12.01,0a4,4,0,1,0,4,4A4.015,4.015,0,0,0,1560.41,109Zm-12.01,2.4a1.6,1.6,0,1,1-1.6,1.6A1.589,1.589,0,0,1,1548.4,111.4Zm12.01,0a1.6,1.6,0,1,1-1.6,1.6A1.581,1.581,0,0,1,1560.41,111.4Z" transform="translate(-1534 -85)"/>
</svg>
