<svg id="Grupa_1" data-name="Grupa 1" xmlns="http://www.w3.org/2000/svg" width="29" height="29" viewBox="0 0 29 29">
  <defs>
    <style>
      .cls-1 {
        fill: #c6c9ce;
        fill-rule: evenodd;
      }
    </style>
  </defs>
  <path id="Shape_2_copy_2" data-name="Shape 2 copy 2" class="cls-1" d="M1540.24,24a7.052,7.052,0,0,0-1.67-2.566,7.147,7.147,0,0,0-2.57-1.669,10.571,10.571,0,0,0-3.52-.672c-1.54-.067-2.04-0.09-5.98-0.09s-4.44.011-5.98,0.09a10.517,10.517,0,0,0-3.52.672,7.147,7.147,0,0,0-2.57,1.669A7.052,7.052,0,0,0,1512.76,24a10.622,10.622,0,0,0-.67,3.519c-0.07,1.546-.09,2.04-0.09,5.984s0.01,4.437.09,5.984a10.56,10.56,0,0,0,.67,3.518,7.048,7.048,0,0,0,1.67,2.566,7.148,7.148,0,0,0,2.57,1.67,10.574,10.574,0,0,0,3.52.672c1.54,0.067,2.04.09,5.98,0.09s4.44-.011,5.98-0.09a10.52,10.52,0,0,0,3.52-.672,7.148,7.148,0,0,0,2.57-1.67A7.048,7.048,0,0,0,1540.24,43a10.62,10.62,0,0,0,.67-3.518c0.07-1.547.09-2.039,0.09-5.984s-0.01-4.437-.09-5.984A10.561,10.561,0,0,0,1540.24,24ZM1538.3,39.36a8.072,8.072,0,0,1-.5,2.689,4.833,4.833,0,0,1-2.76,2.756,8.036,8.036,0,0,1-2.69.5c-1.54.067-1.98,0.09-5.86,0.09s-4.34-.011-5.86-0.09a7.918,7.918,0,0,1-2.69-.5,4.475,4.475,0,0,1-1.67-1.087,4.613,4.613,0,0,1-1.09-1.669,8.14,8.14,0,0,1-.5-2.689c-0.07-1.535-.09-1.995-0.09-5.861s0.01-4.337.09-5.86a8.07,8.07,0,0,1,.5-2.689,4.833,4.833,0,0,1,2.76-2.757,7.981,7.981,0,0,1,2.69-.5c1.53-.067,1.99-0.09,5.86-0.09s4.34,0.011,5.86.09a7.981,7.981,0,0,1,2.69.5,4.563,4.563,0,0,1,1.67,1.087,4.616,4.616,0,0,1,1.09,1.67,8.138,8.138,0,0,1,.5,2.689c0.07,1.535.09,1.995,0.09,5.86S1538.37,37.836,1538.3,39.36Z" transform="translate(-1512 -19)"/>
  <path class="cls-1" d="M1531.01,32.8h-3.41V30.623a0.9,0.9,0,0,1,.95-1.009h2.4v-3.6L1527.64,26a4.129,4.129,0,0,0-4.51,4.4v2.4H1521v3.707h2.13V47h4.47V36.508h3.02Z" transform="translate(-1512 -19)"/>
</svg>
