<svg id="Grupa_2" data-name="Grupa 2" xmlns="http://www.w3.org/2000/svg" width="41.72" height="42" viewBox="0 0 41.72 42">
  <defs>
    <style>
      .cls-1 {
        fill: #3b3b48;
        fill-rule: evenodd;
      }
    </style>
  </defs>
  <path id="Shape_2_copy_3" data-name="Shape 2 copy 3" class="cls-1" d="M1519.62,2253.24a10.722,10.722,0,0,0-6.1-6.14,15.162,15.162,0,0,0-5.06-.97c-2.22-.1-2.93-0.13-8.6-0.13s-6.39.02-8.61,0.13a15.055,15.055,0,0,0-5.06.97,10.667,10.667,0,0,0-6.09,6.14,15.359,15.359,0,0,0-.97,5.09c-0.1,2.24-.13,2.96-0.13,8.67s0.02,6.43.13,8.67a15.252,15.252,0,0,0,.97,5.09,10.667,10.667,0,0,0,6.09,6.14,15.162,15.162,0,0,0,5.06.97c2.22,0.1,2.93.13,8.61,0.13s6.38-.02,8.6-0.13a15.055,15.055,0,0,0,5.06-.97,10.722,10.722,0,0,0,6.1-6.14,15.387,15.387,0,0,0,.96-5.09c0.1-2.24.13-2.96,0.13-8.67s-0.01-6.43-.13-8.67A15.28,15.28,0,0,0,1519.62,2253.24Zm-2.79,22.25a11.593,11.593,0,0,1-.73,3.89,6.512,6.512,0,0,1-1.56,2.42,6.585,6.585,0,0,1-2.4,1.57,11.063,11.063,0,0,1-3.87.73c-2.21.1-2.85,0.13-8.43,0.13s-6.24-.01-8.43-0.13a11.008,11.008,0,0,1-3.87-.73,6.91,6.91,0,0,1-3.96-3.99,11.653,11.653,0,0,1-.73-3.89c-0.09-2.23-.13-2.89-0.13-8.49s0.02-6.28.13-8.49a11.593,11.593,0,0,1,.73-3.89,6.512,6.512,0,0,1,1.56-2.42,6.609,6.609,0,0,1,2.4-1.58,11.561,11.561,0,0,1,3.87-.73c2.21-.09,2.87-0.13,8.43-0.13s6.24,0.02,8.43.13a11.5,11.5,0,0,1,3.87.73,6.65,6.65,0,0,1,2.4,1.58,6.556,6.556,0,0,1,1.56,2.42,11.653,11.653,0,0,1,.73,3.89c0.09,2.23.13,2.89,0.13,8.49S1516.92,2273.28,1516.83,2275.49Z" transform="translate(-1479 -2246)"/>
  <path id="Shape_2_copy_4" data-name="Shape 2 copy 4" class="cls-1" d="M1506.34,2265.99h-4.9v-3.16a1.3,1.3,0,0,1,1.36-1.46h3.46v-5.21l-4.76-.02c-5.29,0-6.49,3.89-6.49,6.38v3.47h-3.06v5.37h3.06v15.19h6.43v-15.19h4.34Z" transform="translate(-1479 -2246)"/>
</svg>
