<svg xmlns="http://www.w3.org/2000/svg" width="41.72" height="42" viewBox="0 0 41.72 42">
  <defs>
    <style>
      .cls-1 {
        fill: #3b3b48;
        fill-rule: evenodd;
      }
    </style>
  </defs>
  <path id="Shape_2_copy" data-name="Shape 2 copy" class="cls-1" d="M1582.9,2253.24a10.667,10.667,0,0,0-6.09-6.14,15.162,15.162,0,0,0-5.06-.97c-2.22-.1-2.93-0.13-8.61-0.13s-6.38.02-8.6,0.13a15.055,15.055,0,0,0-5.06.97,10.646,10.646,0,0,0-6.1,6.14,15.387,15.387,0,0,0-.96,5.09c-0.1,2.24-.13,2.96-0.13,8.67s0.01,6.43.13,8.67a15.28,15.28,0,0,0,.96,5.09,10.646,10.646,0,0,0,6.1,6.14,15.162,15.162,0,0,0,5.06.97c2.22,0.1,2.93.13,8.6,0.13s6.39-.02,8.61-0.13a15.108,15.108,0,0,0,5.06-.97,10.667,10.667,0,0,0,6.09-6.14,15.359,15.359,0,0,0,.97-5.09c0.1-2.24.13-2.96,0.13-8.67s-0.02-6.43-.13-8.67A15.252,15.252,0,0,0,1582.9,2253.24Zm-2.78,22.25a11.593,11.593,0,0,1-.73,3.89,6.512,6.512,0,0,1-1.56,2.42,6.585,6.585,0,0,1-2.4,1.57,11.119,11.119,0,0,1-3.87.73c-2.21.1-2.86,0.13-8.43,0.13s-6.24-.01-8.43-0.13a11.008,11.008,0,0,1-3.87-.73,6.34,6.34,0,0,1-2.4-1.57,6.579,6.579,0,0,1-1.57-2.42,11.724,11.724,0,0,1-.72-3.89c-0.1-2.23-.13-2.89-0.13-8.49s0.02-6.28.13-8.49a11.664,11.664,0,0,1,.72-3.89,7.019,7.019,0,0,1,3.97-4,11.561,11.561,0,0,1,3.87-.73c2.21-.09,2.87-0.13,8.43-0.13s6.23,0.02,8.43.13a11.5,11.5,0,0,1,3.87.73,6.964,6.964,0,0,1,3.96,4,11.653,11.653,0,0,1,.73,3.89c0.09,2.23.12,2.89,0.12,8.49S1580.21,2273.28,1580.12,2275.49Zm-16.99-19.28a10.79,10.79,0,1,0,10.72,10.79A10.755,10.755,0,0,0,1563.13,2256.21Zm0,17.8a7.01,7.01,0,1,1,6.96-7.01A6.991,6.991,0,0,1,1563.13,2274.01Zm11.13-20.74a2.515,2.515,0,1,1-2.49,2.52A2.512,2.512,0,0,1,1574.26,2253.27Z" transform="translate(-1542.28 -2246)"/>
</svg>
