<svg xmlns="http://www.w3.org/2000/svg" width="29" height="29" viewBox="0 0 29 29">
  <defs>
    <style>
      .cls-1 {
        fill: #c6c9ce;
        fill-rule: evenodd;
      }
    </style>
  </defs>
  <path class="cls-1" d="M1584.24,24a7.386,7.386,0,0,0-4.24-4.235,10.571,10.571,0,0,0-3.52-.672c-1.54-.067-2.04-0.09-5.98-0.09s-4.44.011-5.98,0.09a10.517,10.517,0,0,0-3.52.672,7.147,7.147,0,0,0-2.57,1.669A7.052,7.052,0,0,0,1556.76,24a10.622,10.622,0,0,0-.67,3.519c-0.07,1.546-.09,2.04-0.09,5.984s0.01,4.437.09,5.984a10.56,10.56,0,0,0,.67,3.518,7.048,7.048,0,0,0,1.67,2.566,7.148,7.148,0,0,0,2.57,1.67,10.574,10.574,0,0,0,3.52.672c1.54,0.067,2.04.09,5.98,0.09s4.44-.011,5.98-0.09a10.52,10.52,0,0,0,3.52-.672A7.387,7.387,0,0,0,1584.24,43a10.62,10.62,0,0,0,.67-3.518c0.07-1.547.09-2.039,0.09-5.984s-0.01-4.437-.09-5.984A10.561,10.561,0,0,0,1584.24,24ZM1582.3,39.36a8.072,8.072,0,0,1-.5,2.689,4.833,4.833,0,0,1-2.76,2.756,8.036,8.036,0,0,1-2.69.5c-1.54.067-1.98,0.09-5.86,0.09s-4.34-.011-5.86-0.09a7.918,7.918,0,0,1-2.69-.5,4.475,4.475,0,0,1-1.67-1.087,4.613,4.613,0,0,1-1.09-1.669,8.14,8.14,0,0,1-.5-2.689c-0.07-1.535-.09-1.995-0.09-5.861s0.01-4.337.09-5.86a8.07,8.07,0,0,1,.5-2.689,4.833,4.833,0,0,1,2.76-2.757,7.981,7.981,0,0,1,2.69-.5c1.53-.067,1.99-0.09,5.86-0.09s4.34,0.011,5.86.09a7.981,7.981,0,0,1,2.69.5,4.563,4.563,0,0,1,1.67,1.087,4.616,4.616,0,0,1,1.09,1.67,8.138,8.138,0,0,1,.5,2.689c0.07,1.535.09,1.995,0.09,5.86S1582.37,37.836,1582.3,39.36Zm-11.81-13.312a7.452,7.452,0,1,0,7.45,7.452A7.456,7.456,0,0,0,1570.49,26.048Zm0,12.293a4.841,4.841,0,1,1,4.84-4.841A4.839,4.839,0,0,1,1570.49,38.341Zm7.74-14.321a1.737,1.737,0,1,1-1.74,1.737A1.739,1.739,0,0,1,1578.23,24.02Z" transform="translate(-1556 -19)"/>
</svg>
