<svg id="Grupa_2" data-name="Grupa 2" xmlns="http://www.w3.org/2000/svg" width="156.625" height="144.562" viewBox="0 0 156.625 144.562">
  <defs>
    <style>
      .cls-1 {
        fill: #d11c2f;
      }

      .cls-1, .cls-2 {
        fill-rule: evenodd;
      }

      .cls-2 {
        fill: #fefefe;
      }
    </style>
  </defs>
  <path id="Shape_3_copy_3" data-name="Shape 3 copy 3" class="cls-1" d="M440.155,48.5c-15.124,7.156-45.4,54.836,5.572,105.746,18.309,18.287,73.234,28.623,114.627-10.336,17.513-14.312,20.7-66.787-5.572-92.23S455.28,41.343,440.155,48.5Z" transform="translate(-417.375 -26)"/>
  <path id="Shape_8_copy_2" data-name="Shape 8 copy 2" class="cls-1" d="M449.707,38.163S493.489,27.032,511,31.8C504.633,24.647,465.628,21.466,449.707,38.163Z" transform="translate(-417.375 -26)"/>
  <path id="Roger_s_Pets_copy_7" data-name="Roger’s Pets copy 7" class="cls-2" d="M437.319,83.186q1.158,3.052,2.5,6.128a12.014,12.014,0,0,0,.619,1.271,4.232,4.232,0,0,0,.742.981,2.629,2.629,0,0,0,.96.59,3.225,3.225,0,0,0,1.312.143,3.117,3.117,0,0,0,2.064-1.04,5.578,5.578,0,0,0,1.31-2.729,32.771,32.771,0,0,0-1.749-3.718c-0.731-1.354-1.445-2.8-2.13-4.348a13.573,13.573,0,0,0,2.872-3.936,16.673,16.673,0,0,0,1.621-5.943c0.376-3.664-.032-6.549-1.229-8.361s-3.2-2.215-6.091-1.1a20.071,20.071,0,0,0-3.065,1.492,17.221,17.221,0,0,0-2.666,1.948,7.105,7.105,0,0,0-1.2,1.36,5.189,5.189,0,0,0-.727,1.782,139.34,139.34,0,0,0-3.3,22.07,5.96,5.96,0,0,0,.121,1.821,2.079,2.079,0,0,0,.57,1.028,1.855,1.855,0,0,0,.988.446,5.629,5.629,0,0,0,1.392.019,10.251,10.251,0,0,0,1.6-.285,8.1,8.1,0,0,0,1.193-.382c0.042-2.913.206-5.891,0.476-8.95q0.9-.146,1.8-0.286h0ZM436.193,77q0.483-3.726,1.137-7.632,0.374-.211.675-0.351a5.809,5.809,0,0,1,.787-0.282c1.148-.337,1.935-0.22,2.371.339a3.988,3.988,0,0,1,.394,2.876,6.712,6.712,0,0,1-1.1,3.175,3.454,3.454,0,0,1-2.125,1.416q-1.071.224-2.14,0.459h0Zm13.625,6.037a13.7,13.7,0,0,0,2.1,5,9.121,9.121,0,0,0,3.422,2.972,8.934,8.934,0,0,0,4.371.9,9.32,9.32,0,0,0,4.382-1.256,10.761,10.761,0,0,0,3.522-3.4,18.418,18.418,0,0,0,2.392-5.643,35.59,35.59,0,0,0,1.01-8,39.784,39.784,0,0,0-.567-8.308,22.064,22.064,0,0,0-1.983-6.159,8.873,8.873,0,0,0-3.077-3.563,5.321,5.321,0,0,0-3.938-.664,8.859,8.859,0,0,0-4.128,2.191,18.535,18.535,0,0,0-3.6,4.529,31.127,31.127,0,0,0-2.779,6.384,34.8,34.8,0,0,0-1.488,7.84,24.457,24.457,0,0,0,.366,7.173h0Zm7.53-15.978c0.963-1.892,2.127-2.991,3.5-3.2,1.393-.212,2.435.573,3.153,2.309s1,4.425.863,7.907c-0.137,3.518-.632,6.067-1.53,7.773a4.3,4.3,0,0,1-3.522,2.668,3.393,3.393,0,0,1-3.346-2.157c-0.791-1.541-1.108-3.927-.9-7.319a20.87,20.87,0,0,1,1.788-7.986h0Zm35.941,5.929a5.976,5.976,0,0,0-.6-2.841,1.765,1.765,0,0,0-1.6-1.016q-2.883.018-5.766,0.087a1.723,1.723,0,0,0-1.453,1.025,6.8,6.8,0,0,0-.577,3.174,12.722,12.722,0,0,0,.18,2.262,13.047,13.047,0,0,0,.391,1.7q1.849-.038,3.7-0.061,0.006,2.761.007,5.43a2.906,2.906,0,0,1-.905.519,3.83,3.83,0,0,1-1.359.241,4.414,4.414,0,0,1-2.227-.561,5.264,5.264,0,0,1-1.833-1.782A9.729,9.729,0,0,1,480,78.027a19.9,19.9,0,0,1-.42-4.674,17.829,17.829,0,0,1,1.771-8.271c1.134-2.084,2.629-3.2,4.508-3.254a4.5,4.5,0,0,1,2.843.88,13.5,13.5,0,0,1,2.127,1.878,6.436,6.436,0,0,0,.986-1.944,8.8,8.8,0,0,0,.389-2.959,8.027,8.027,0,0,0-1.923-5.367,5.98,5.98,0,0,0-4.957-1.989,7.655,7.655,0,0,0-4.22,1.6,14.256,14.256,0,0,0-3.728,4.34,28.068,28.068,0,0,0-2.76,6.757A35.811,35.811,0,0,0,473.4,73.82a27.854,27.854,0,0,0,.792,7.865,15.656,15.656,0,0,0,2.5,5.4,10.137,10.137,0,0,0,3.806,3.152,10.812,10.812,0,0,0,4.713,1.016,11.526,11.526,0,0,0,1.905-.172,11.883,11.883,0,0,0,1.837-.469,10.007,10.007,0,0,0,1.611-.713,6.788,6.788,0,0,0,1.225-.852,5.111,5.111,0,0,0,1.223-1.6,6.39,6.39,0,0,0,.377-2.57c-0.016-3.827-.052-7.773-0.106-11.889h0ZM497.414,85.4a7.089,7.089,0,0,0,.891,3.785,2.724,2.724,0,0,0,2.383,1.391q5.118,0.047,10.243.136a1.7,1.7,0,0,0,1.521-.868,5.526,5.526,0,0,0,.542-2.97,11.148,11.148,0,0,0-.234-2.111,9.59,9.59,0,0,0-.477-1.636q-4.481-.124-8.962-0.2-0.048-2.981-.128-6.068,3.183,0.066,6.365.168a1.532,1.532,0,0,0,1.45-.887,6.373,6.373,0,0,0,.411-3.183,13.211,13.211,0,0,0-.3-2.272,12.182,12.182,0,0,0-.515-1.764q-3.829-.177-7.664-0.283-0.1-2.89-.225-5.9,3.548,0.116,7.092.31a1.423,1.423,0,0,0,1.4-.947,7.529,7.529,0,0,0,.319-3.493,17.865,17.865,0,0,0-.357-2.549,15.756,15.756,0,0,0-.549-2q-5.406-.407-10.832-0.585a2.322,2.322,0,0,0-2.178,1.666,10.535,10.535,0,0,0-.691,4.572c0.266,9.358.446,17.774,0.5,25.686h0Zm26.832-5.252q1.665,3.863,3.257,7.523,0.342,0.814.71,1.515a5.946,5.946,0,0,0,.8,1.187,3.059,3.059,0,0,0,2.343,1.059,2.708,2.708,0,0,0,2.07-.907,4.89,4.89,0,0,0,1.18-2.761,40.061,40.061,0,0,0-2.136-4.248c-0.9-1.591-1.836-3.321-2.8-5.206a8.66,8.66,0,0,0,2.286-3.682,13.7,13.7,0,0,0,.443-6.087,21.716,21.716,0,0,0-3.486-9.933,10,10,0,0,0-7.213-4.62,11.583,11.583,0,0,0-3.082.023,5.948,5.948,0,0,0-2.47.924,2.555,2.555,0,0,0-.928,1.15,4.687,4.687,0,0,0-.2,2.129c0.818,10.361,1.378,19.569,1.571,28.2a10.464,10.464,0,0,0,.254,2.3,3.469,3.469,0,0,0,.631,1.368,2.172,2.172,0,0,0,1.026.7,4.954,4.954,0,0,0,1.424.219,8.562,8.562,0,0,0,1.633-.124,6.73,6.73,0,0,0,1.209-.291c-0.047-3.414-.169-6.908-0.355-10.519ZM521.9,72.373c-0.214-2.962-.465-6.011-0.749-9.165a5.061,5.061,0,0,1,.65-0.132,3.977,3.977,0,0,1,.795.008,3.578,3.578,0,0,1,2.7,1.453,7.219,7.219,0,0,1,1.166,3.591,5.7,5.7,0,0,1-.433,3.377,1.955,1.955,0,0,1-1.949,1.009q-1.092-.072-2.184-0.141h0Zm17.428-6.092q0.122-1.265.142-2.679t-0.094-2.869q-0.114-1.456-.329-2.709a8.555,8.555,0,0,0-.556-1.958,5.5,5.5,0,0,0-.825-1.377,3.35,3.35,0,0,0-2.019-1.187,2.015,2.015,0,0,0-1.307.229,3.241,3.241,0,0,0-1.011.794c0.3,2.251.582,4.639,0.824,7.144s0.452,4.946.629,7.33a5.89,5.89,0,0,0,1.118.746,3.372,3.372,0,0,0,1.2.347,1.482,1.482,0,0,0,1.215-.339,2.713,2.713,0,0,0,.672-1.367,14.58,14.58,0,0,0,.337-2.105h0Zm13,13.956a8.817,8.817,0,0,1,1.683,1.174,2.549,2.549,0,0,1,.755,1.6,2.13,2.13,0,0,1-.473,1.728,2.739,2.739,0,0,1-2.306.624,6.671,6.671,0,0,1-3.15-.986,11.192,11.192,0,0,1-2.567-2.116,4.629,4.629,0,0,0-1.119,1.573,5,5,0,0,0-.378,2.538,5.727,5.727,0,0,0,2.467,4.425,8.243,8.243,0,0,0,2.487,1.163,12.011,12.011,0,0,0,3.034.448c3.057,0.076,5.332-.7,6.74-2.318s1.921-3.769,1.5-6.571a13.238,13.238,0,0,0-2.792-6.558,20.531,20.531,0,0,0-5.57-4.575q-0.965-.562-1.927-1.132a5.9,5.9,0,0,1-1.465-1.124,2.843,2.843,0,0,1-.675-1.432,1.947,1.947,0,0,1,.359-1.707,2.192,2.192,0,0,1,2.014-.425,7.653,7.653,0,0,1,2.756.954,10.7,10.7,0,0,1,2.213,1.619,4.308,4.308,0,0,0,.554-1.615,6.411,6.411,0,0,0-.2-2.434,8.925,8.925,0,0,0-1.108-2.669,9.171,9.171,0,0,0-4.021-3.539,10.837,10.837,0,0,0-2.594-.815c-2.473-.45-4.181.267-5.2,2.124s-1.266,4.507-.757,7.795a18.865,18.865,0,0,0,1.117,4.307,12.13,12.13,0,0,0,1.77,3.045,11.606,11.606,0,0,0,2.377,2.217q1.337,0.935,2.943,1.84,0.765,0.424,1.533.843h0ZM443.9,120.2a86,86,0,0,1-2.646-12.061,7.264,7.264,0,0,1,1.268-.175q0.627-.028,1.592-0.013a5.818,5.818,0,0,1,4.335,1.748,8.934,8.934,0,0,1,2.1,4.834c0.359,2.181.247,3.771-.377,4.751s-1.7,1.382-3.28,1.222q-1.5-.15-2.991-0.306h0Zm3.953,10.635q1.8,0.387,3.6.753a8.232,8.232,0,0,0,5.061-.251,6.353,6.353,0,0,0,3.107-3.147,16.518,16.518,0,0,0,1.46-5.583A36.388,36.388,0,0,0,461,115.05c-0.595-5.789-2.3-10.462-5.45-13.845s-7.5-4.939-13.174-4.651a32.285,32.285,0,0,0-5.371.727,19.8,19.8,0,0,0-4.7,1.63,4.9,4.9,0,0,0-1.84,1.5,3.478,3.478,0,0,0-.474,2.462c1.32,11.688,5.634,22.576,14.31,33.716a40.342,40.342,0,0,0,2.682,3.107c0.81,0.845,1.574,1.571,2.269,2.18a24.75,24.75,0,0,0,1.953,1.559,18.607,18.607,0,0,0,1.8,1.139,9.755,9.755,0,0,0,1.65.738,3.08,3.08,0,0,0,1.037.207,114.1,114.1,0,0,1-7.841-14.693h0Zm22.124,12.923a24.573,24.573,0,0,0,2.3,6.984c0.993,1.886,2.018,3.049,3.152,3.379a74.026,74.026,0,0,0,11.979,2.44c0.767,0.092,1.432-.469,2.016-1.652a17.708,17.708,0,0,0,1.233-5.9,26.812,26.812,0,0,0,.043-4.032,18.515,18.515,0,0,0-.42-3.029c-4.359-.226-8.614-0.628-12.805-1.182-0.224-3.444-.42-6.789-0.591-10.07q4.957,0.406,9.995.648a2.643,2.643,0,0,0,2.425-1.439,10.937,10.937,0,0,0,1.111-5.113,17.724,17.724,0,0,0-.19-3.53,14.435,14.435,0,0,0-.653-2.671q-6.654-.136-13.226-0.4c-0.1-2.812-.172-5.609-0.232-8.417q6.382,0.118,12.805.2a3.114,3.114,0,0,0,2.686-1.452c0.694-.981,1.073-2.646,1.114-5.011a17.605,17.605,0,0,0-.289-3.562,14.786,14.786,0,0,0-.75-2.743q-10.278-.034-20.5.058a4.822,4.822,0,0,0-4.173,2.325,10.134,10.134,0,0,0-1.35,6.091,271.754,271.754,0,0,0,4.315,38.073h0Zm36.637-33.392a309.024,309.024,0,0,1-4.693,37.707,31.126,31.126,0,0,0-.555,4.539,7.4,7.4,0,0,0,.322,2.73,2.166,2.166,0,0,0,1.129,1.309,3.8,3.8,0,0,0,1.891.22,9.593,9.593,0,0,0,2.407-.595,11.622,11.622,0,0,0,1.94-.9c4.695-17.01,7.3-31.013,8.4-45.075q3.457-.038,6.94-0.1a3.808,3.808,0,0,0,2.99-1.575,8.857,8.857,0,0,0,1.435-5.03,15.181,15.181,0,0,0-.236-3.61,14.12,14.12,0,0,0-.761-2.742c-9.158-.1-18.273-0.212-27.351-0.276a3.33,3.33,0,0,0-2.861,1.594c-0.744,1.069-1.132,2.827-1.188,5.255a18.753,18.753,0,0,0,.27,3.727,16.053,16.053,0,0,0,.7,2.79Q501.992,110.364,506.616,110.362ZM543.1,129.328a7.306,7.306,0,0,1,2.435,1.2c0.523,0.447.614,1.206,0.247,2.3a7.671,7.671,0,0,1-2.333,3.2,11.09,11.09,0,0,1-4.952,2.309,7.737,7.737,0,0,1-5.12-.284,7.634,7.634,0,0,1-3.19-2.776,17.99,17.99,0,0,0-3.113,3.273,15.916,15.916,0,0,0-2.474,4.919,11.608,11.608,0,0,0-.649,4.7,4.321,4.321,0,0,0,1.4,2.961,4.916,4.916,0,0,0,3.283,1,15.777,15.777,0,0,0,5.032-1.036,49.32,49.32,0,0,0,15.349-9.246c4.451-3.893,7.575-7.661,9.034-11.733,1.375-3.837,1-6.629-.711-8.626s-4.551-3.6-8.362-4.863q-1.611-.538-3.217-1.118a5.783,5.783,0,0,1-2.3-1.289,2.331,2.331,0,0,1-.568-2.013,3.927,3.927,0,0,1,1.637-2.713,7.625,7.625,0,0,1,4.343-1.214,15.377,15.377,0,0,1,5.17.613,12.18,12.18,0,0,1,3.665,1.708,11.023,11.023,0,0,0,2.119-2.568,7.146,7.146,0,0,0,.971-3.51,6.232,6.232,0,0,0-.907-3.588,7.882,7.882,0,0,0-2.682-2.582,13.6,13.6,0,0,0-4.073-1.559,24.645,24.645,0,0,0-5.084-.563c-4.985-.065-8.817,1.386-11.671,4.405s-4.45,7.062-5.012,12.057a23.1,23.1,0,0,0,.01,6.527,11.217,11.217,0,0,0,1.7,4.452,9.375,9.375,0,0,0,3.192,2.909,27.967,27.967,0,0,0,4.44,1.979Q541.906,128.96,543.1,129.328Z" transform="translate(-417.375 -26)"/>
  <path id="Shape_9_copy_2" data-name="Shape 9 copy 2" class="cls-1" d="M563.539,150.269S549.21,153.45,550.006,162.2s11.941,3.18,15.125,1.59S575.479,152.655,563.539,150.269Z" transform="translate(-417.375 -26)"/>
</svg>
